<svg width="768px" height="383px"><polygon fill="rgb(228,119,25)" stroke="rgb(228,119,25)" points="314.00633811950684,288.5938956141472 251.3605499267578,304.5123093724251 231.44916915893555,238.73705821484327"></polygon><polygon fill="rgb(119,57,0)" stroke="rgb(119,57,0)" points="250.03211975097656,174.44879791140556 291.76331520080566,149.70678454637527 312.2922248840332,155.96450324356556"></polygon><polygon fill="rgb(119,57,0)" stroke="rgb(119,57,0)" points="242.23954010009766,153.92422753572464 291.76331520080566,149.70678454637527 250.03211975097656,174.44879791140556"></polygon><polygon fill="rgb(119,57,0)" stroke="rgb(119,57,0)" points="242.23954010009766,153.92422753572464 239.99766540527344,139.3716933131218 291.76331520080566,149.70678454637527"></polygon><polygon fill="rgb(119,57,0)" stroke="rgb(119,57,0)" points="291.76331520080566,149.70678454637527 239.99766540527344,139.3716933131218 236.82662200927734,127.25686894357204"></polygon><polygon fill="rgb(228,119,25)" stroke="rgb(228,119,25)" points="231.44916915893555,238.73705821484327 280.53245544433594,240.83847741782665 314.00633811950684,288.5938956141472"></polygon><polygon fill="rgb(119,57,0)" stroke="rgb(119,57,0)" points="289.6043643951416,87.83227264881134 291.76331520080566,149.70678454637527 236.82662200927734,127.25686894357204"></polygon><polygon fill="rgb(119,57,0)" stroke="rgb(119,57,0)" points="312.2922248840332,155.96450324356556 291.76331520080566,149.70678454637527 289.6043643951416,87.83227264881134"></polygon><polygon fill="rgb(247,132,25)" stroke="rgb(247,132,25)" points="289.38776779174805,186.10118696745485 231.44916915893555,238.73705821484327 250.03211975097656,174.44879791140556"></polygon><polygon fill="rgb(247,132,25)" stroke="rgb(247,132,25)" points="280.53245544433594,240.83847741782665 231.44916915893555,238.73705821484327 289.38776779174805,186.10118696745485"></polygon><polygon fill="rgb(228,119,25)" stroke="rgb(228,119,25)" points="537.6010093688965,242.97502695024014 517.3177299499512,311.2267765700817 441.9059600830078,291.43742340803146"></polygon><polygon fill="rgb(247,132,25)" stroke="rgb(247,132,25)" points="400.66449308395386,117.69737868010998 355.0304660797119,118.02112217247486 340.22741317749023,66.62187469005585"></polygon><polygon fill="rgb(247,132,25)" stroke="rgb(247,132,25)" points="340.22741317749023,66.62187469005585 423.3564691543579,65.29805681109428 400.66449308395386,117.69737868010998"></polygon><polygon fill="rgb(228,119,25)" stroke="rgb(228,119,25)" points="355.0304660797119,118.02112217247486 237.50040435791016,33.08390712738037 340.22741317749023,66.62187469005585"></polygon><polygon fill="rgb(119,57,0)" stroke="rgb(119,57,0)" points="250.03211975097656,174.44879791140556 236.23340606689453,158.38329676538706 242.23954010009766,153.92422753572464"></polygon><polygon fill="rgb(119,57,0)" stroke="rgb(119,57,0)" points="242.23954010009766,153.92422753572464 232.6512336730957,145.2554228156805 239.99766540527344,139.3716933131218"></polygon><polygon fill="rgb(119,57,0)" stroke="rgb(119,57,0)" points="230.3236083984375,132.17969219386578 236.82662200927734,127.25686894357204 239.99766540527344,139.3716933131218"></polygon><polygon fill="rgb(119,57,0)" stroke="rgb(119,57,0)" points="514.3745956420898,175.13674569875002 448.58921813964844,155.88138438761234 472.9120845794678,149.39993990957737"></polygon><polygon fill="rgb(119,57,0)" stroke="rgb(119,57,0)" points="522.744815826416,153.65127477794886 514.3745956420898,175.13674569875002 472.9120845794678,149.39993990957737"></polygon><polygon fill="rgb(119,57,0)" stroke="rgb(119,57,0)" points="522.744815826416,153.65127477794886 472.9120845794678,149.39993990957737 525.3380584716797,138.36954152584076"></polygon><polygon fill="rgb(119,57,0)" stroke="rgb(119,57,0)" points="472.9120845794678,149.39993990957737 528.8400764465332,125.61322838068008 525.3380584716797,138.36954152584076"></polygon><polygon fill="rgb(119,57,0)" stroke="rgb(119,57,0)" points="236.82662200927734,127.25686894357204 225.10410690307617,78.65177103877068 289.6043643951416,87.83227264881134"></polygon><polygon fill="rgb(119,57,0)" stroke="rgb(119,57,0)" points="289.6043643951416,87.83227264881134 355.0304660797119,118.02112217247486 312.2922248840332,155.96450324356556"></polygon><polygon fill="rgb(119,57,0)" stroke="rgb(119,57,0)" points="528.8400764465332,125.61322838068008 472.9120845794678,149.39993990957737 469.27720642089844,85.60508224368095"></polygon><polygon fill="rgb(119,57,0)" stroke="rgb(119,57,0)" points="469.27720642089844,85.60508224368095 472.9120845794678,149.39993990957737 448.58921813964844,155.88138438761234"></polygon><polygon fill="rgb(247,132,25)" stroke="rgb(247,132,25)" points="250.03211975097656,174.44879791140556 312.2922248840332,155.96450324356556 289.38776779174805,186.10118696745485"></polygon><polygon fill="rgb(225,119,25)" stroke="rgb(225,119,25)" points="520.4248924255371,26.841592013835907 400.66449308395386,117.69737868010998 423.3564691543579,65.29805681109428"></polygon><polygon fill="rgb(228,119,25)" stroke="rgb(228,119,25)" points="441.9059600830078,291.43742340803146 473.035400390625,243.55065527558327 537.6010093688965,242.97502695024014"></polygon><polygon fill="rgb(247,132,25)" stroke="rgb(247,132,25)" points="463.8669090270996,186.90381768811494 514.3745956420898,175.13674569875002 537.6010093688965,242.97502695024014"></polygon><polygon fill="rgb(247,132,25)" stroke="rgb(247,132,25)" points="463.8669090270996,186.90381768811494 537.6010093688965,242.97502695024014 473.035400390625,243.55065527558327"></polygon><polygon fill="rgb(228,119,25)" stroke="rgb(228,119,25)" points="312.2922248840332,155.96450324356556 355.0304660797119,118.02112217247486 355.07691192626953,189.85801326064393"></polygon><polygon fill="rgb(228,119,25)" stroke="rgb(228,119,25)" points="355.07691192626953,189.85801326064393 289.38776779174805,186.10118696745485 312.2922248840332,155.96450324356556"></polygon><polygon fill="rgb(119,57,0)" stroke="rgb(119,57,0)" points="448.58921813964844,155.88138438761234 400.66449308395386,117.69737868010998 469.27720642089844,85.60508224368095"></polygon><polygon fill="rgb(247,132,25)" stroke="rgb(247,132,25)" points="514.3745956420898,175.13674569875002 463.8669090270996,186.90381768811494 448.58921813964844,155.88138438761234"></polygon><polygon fill="rgb(119,57,0)" stroke="rgb(119,57,0)" points="514.3745956420898,175.13674569875002 522.744815826416,153.65127477794886 528.8126678466797,158.32603983581066"></polygon><polygon fill="rgb(228,119,25)" stroke="rgb(228,119,25)" points="448.58921813964844,155.88138438761234 463.8669090270996,186.90381768811494 392.31514835357666,190.05131514463574"></polygon><polygon fill="rgb(228,119,25)" stroke="rgb(228,119,25)" points="392.31514835357666,190.05131514463574 400.66449308395386,117.69737868010998 448.58921813964844,155.88138438761234"></polygon><polygon fill="rgb(119,57,0)" stroke="rgb(119,57,0)" points="522.744815826416,153.65127477794886 525.3380584716797,138.36954152584076 532.7672653198242,144.50846315175295"></polygon><polygon fill="rgb(119,57,0)" stroke="rgb(119,57,0)" points="535.4356269836426,130.72283506393433 525.3380584716797,138.36954152584076 528.8400764465332,125.61322838068008"></polygon><polygon fill="rgb(119,57,0)" stroke="rgb(119,57,0)" points="237.50040435791016,33.08390712738037 355.0304660797119,118.02112217247486 289.6043643951416,87.83227264881134"></polygon><polygon fill="rgb(119,57,0)" stroke="rgb(119,57,0)" points="289.6043643951416,87.83227264881134 225.10410690307617,78.65177103877068 237.50040435791016,33.08390712738037"></polygon><polygon fill="rgb(205,98,0)" stroke="rgb(205,98,0)" points="314.00633811950684,288.5938956141472 280.53245544433594,240.83847741782665 315.97240447998047,242.26154825091362"></polygon><polygon fill="rgb(119,57,0)" stroke="rgb(119,57,0)" points="469.27720642089844,85.60508224368095 538.4662055969238,74.220390021801 528.8400764465332,125.61322838068008"></polygon><polygon fill="rgb(247,132,25)" stroke="rgb(247,132,25)" points="355.0304660797119,118.02112217247486 400.66449308395386,117.69737868010998 392.31514835357666,190.05131514463574"></polygon><polygon fill="rgb(247,132,25)" stroke="rgb(247,132,25)" points="392.31514835357666,190.05131514463574 355.07691192626953,189.85801326064393 355.0304660797119,118.02112217247486"></polygon><polygon fill="rgb(205,98,0)" stroke="rgb(205,98,0)" points="441.9059600830078,291.43742340803146 432.55832862854004,243.9226755052805 473.035400390625,243.55065527558327"></polygon><polygon fill="rgb(119,57,0)" stroke="rgb(119,57,0)" points="469.27720642089844,85.60508224368095 400.66449308395386,117.69737868010998 520.4248924255371,26.841592013835907"></polygon><polygon fill="rgb(119,57,0)" stroke="rgb(119,57,0)" points="520.4248924255371,26.841592013835907 538.4662055969238,74.220390021801 469.27720642089844,85.60508224368095"></polygon><polygon fill="rgb(192,172,157)" stroke="rgb(192,172,157)" points="324.8299026489258,300.28442230820656 314.00633811950684,288.5938956141472 341.5063533782959,310.23040041327477"></polygon><polygon fill="rgb(247,132,25)" stroke="rgb(247,132,25)" points="289.38776779174805,186.10118696745485 315.97240447998047,242.26154825091362 280.53245544433594,240.83847741782665"></polygon><polygon fill="rgb(214,194,178)" stroke="rgb(214,194,178)" points="339.04063510894775,299.5643746852875 341.5063533782959,310.23040041327477 314.00633811950684,288.5938956141472"></polygon><polygon fill="rgb(228,116,36)" stroke="rgb(228,116,36)" points="289.38776779174805,186.10118696745485 315.3921375274658,214.46787323057652 315.97240447998047,242.26154825091362"></polygon><polygon fill="rgb(214,194,178)" stroke="rgb(214,194,178)" points="314.00633811950684,288.5938956141472 341.7702798843384,272.9930730462074 339.04063510894775,299.5643746852875"></polygon><polygon fill="rgb(228,119,25)" stroke="rgb(228,119,25)" points="341.7702798843384,272.9930730462074 314.00633811950684,288.5938956141472 315.97240447998047,242.26154825091362"></polygon><polygon fill="rgb(205,98,0)" stroke="rgb(205,98,0)" points="315.3921375274658,214.46787323057652 289.38776779174805,186.10118696745485 355.07691192626953,189.85801326064393"></polygon><polygon fill="rgb(192,172,157)" stroke="rgb(192,172,157)" points="392.47337436676025,311.547209918499 441.9059600830078,291.43742340803146 425.87074756622314,302.729682713747"></polygon><polygon fill="rgb(214,194,178)" stroke="rgb(214,194,178)" points="390.6470904350281,300.803875207901 441.9059600830078,291.43742340803146 392.47337436676025,311.547209918499"></polygon><polygon fill="rgb(214,194,178)" stroke="rgb(214,194,178)" points="441.9059600830078,291.43742340803146 390.6470904350281,300.803875207901 387.0417619943619,273.8737254291773"></polygon><polygon fill="rgb(228,119,25)" stroke="rgb(228,119,25)" points="387.0417619943619,273.8737254291773 432.55832862854004,243.9226755052805 441.9059600830078,291.43742340803146"></polygon><polygon fill="rgb(205,98,0)" stroke="rgb(205,98,0)" points="355.07691192626953,189.85801326064393 339.09542083740234,203.71625887975097 315.3921375274658,214.46787323057652"></polygon><polygon fill="rgb(36,51,67)" stroke="rgb(36,51,67)" points="348.1753234863281,225.28210494667292 315.3921375274658,214.46787323057652 339.09542083740234,203.71625887975097"></polygon><polygon fill="rgb(247,132,25)" stroke="rgb(247,132,25)" points="315.97240447998047,242.26154825091362 315.3921375274658,214.46787323057652 348.1753234863281,225.28210494667292"></polygon><polygon fill="rgb(247,132,25)" stroke="rgb(247,132,25)" points="473.035400390625,243.55065527558327 432.55832862854004,243.9226755052805 463.8669090270996,186.90381768811494"></polygon><polygon fill="rgb(228,116,36)" stroke="rgb(228,116,36)" points="463.8669090270996,186.90381768811494 432.55832862854004,243.9226755052805 434.18650817871094,215.5921265259385"></polygon><polygon fill="rgb(205,98,0)" stroke="rgb(205,98,0)" points="392.31514835357666,190.05131514463574 463.8669090270996,186.90381768811494 434.18650817871094,215.5921265259385"></polygon><polygon fill="rgb(192,172,157)" stroke="rgb(192,172,157)" points="341.5063533782959,310.23040041327477 343.34722995758057,321.91228649020195 324.8299026489258,300.28442230820656"></polygon><polygon fill="rgb(205,98,0)" stroke="rgb(205,98,0)" points="339.09542083740234,203.71625887975097 355.07691192626953,189.85801326064393 348.1753234863281,225.28210494667292"></polygon><polygon fill="rgb(205,98,0)" stroke="rgb(205,98,0)" points="434.18650817871094,215.5921265259385 409.2376928329468,204.2480534799397 392.31514835357666,190.05131514463574"></polygon><polygon fill="rgb(36,51,67)" stroke="rgb(36,51,67)" points="397.9410252571106,225.84258365631104 409.2376928329468,204.2480534799397 434.18650817871094,215.5921265259385"></polygon><polygon fill="rgb(247,132,25)" stroke="rgb(247,132,25)" points="432.55832862854004,243.9226755052805 397.9410252571106,225.84258365631104 434.18650817871094,215.5921265259385"></polygon><polygon fill="rgb(205,98,0)" stroke="rgb(205,98,0)" points="409.2376928329468,204.2480534799397 397.9410252571106,225.84258365631104 392.31514835357666,190.05131514463574"></polygon><polygon fill="rgb(192,172,157)" stroke="rgb(192,172,157)" points="425.87074756622314,302.729682713747 389.72349178791046,323.2029458582401 392.47337436676025,311.547209918499"></polygon><polygon fill="rgb(228,116,36)" stroke="rgb(228,116,36)" points="348.1753234863281,225.28210494667292 355.07691192626953,189.85801326064393 355.04428482055664,212.53770546615124"></polygon><polygon fill="rgb(247,132,25)" stroke="rgb(247,132,25)" points="355.04428482055664,212.53770546615124 355.07691192626953,189.85801326064393 392.31514835357666,190.05131514463574"></polygon><polygon fill="rgb(247,132,25)" stroke="rgb(247,132,25)" points="392.31514835357666,190.05131514463574 389.10555374622345,212.8466275036335 355.04428482055664,212.53770546615124"></polygon><polygon fill="rgb(225,119,25)" stroke="rgb(225,119,25)" points="397.9410252571106,225.84258365631104 389.10555374622345,212.8466275036335 392.31514835357666,190.05131514463574"></polygon><polygon fill="rgb(247,132,25)" stroke="rgb(247,132,25)" points="341.7702798843384,272.9930730462074 315.97240447998047,242.26154825091362 348.1753234863281,225.28210494667292"></polygon><polygon fill="rgb(247,132,25)" stroke="rgb(247,132,25)" points="397.9410252571106,225.84258365631104 432.55832862854004,243.9226755052805 387.0417619943619,273.8737254291773"></polygon><polygon fill="rgb(228,116,36)" stroke="rgb(228,116,36)" points="355.04428482055664,212.53770546615124 347.544153213501,269.0932326614857 348.1753234863281,225.28210494667292"></polygon><polygon fill="rgb(247,132,25)" stroke="rgb(247,132,25)" points="348.1753234863281,225.28210494667292 347.544153213501,269.0932326614857 341.7702798843384,272.9930730462074"></polygon><polygon fill="rgb(228,116,36)" stroke="rgb(228,116,36)" points="389.10555374622345,212.8466275036335 397.9410252571106,225.84258365631104 381.1654175519943,269.7241518050432"></polygon><polygon fill="rgb(247,132,25)" stroke="rgb(247,132,25)" points="387.0417619943619,273.8737254291773 381.1654175519943,269.7241518050432 397.9410252571106,225.84258365631104"></polygon><polygon fill="rgb(247,132,25)" stroke="rgb(247,132,25)" points="355.04428482055664,212.53770546615124 389.10555374622345,212.8466275036335 381.1654175519943,269.7241518050432"></polygon><polygon fill="rgb(247,132,25)" stroke="rgb(247,132,25)" points="381.1654175519943,269.7241518050432 347.544153213501,269.0932326614857 355.04428482055664,212.53770546615124"></polygon><polygon fill="rgb(192,172,157)" stroke="rgb(192,172,157)" points="390.6470904350281,300.803875207901 392.47337436676025,311.547209918499 389.72349178791046,323.2029458582401"></polygon><polygon fill="rgb(192,172,157)" stroke="rgb(192,172,157)" points="339.04063510894775,299.5643746852875 340.99546337127686,297.17793211340904 343.34722995758057,321.91228649020195"></polygon><polygon fill="rgb(192,172,157)" stroke="rgb(192,172,157)" points="343.34722995758057,321.91228649020195 340.99546337127686,297.17793211340904 386.63353139162064,298.2550529539585"></polygon><polygon fill="rgb(192,172,157)" stroke="rgb(192,172,157)" points="386.63353139162064,298.2550529539585 389.72349178791046,323.2029458582401 343.34722995758057,321.91228649020195"></polygon><polygon fill="rgb(192,172,157)" stroke="rgb(192,172,157)" points="389.72349178791046,323.2029458582401 386.63353139162064,298.2550529539585 390.6470904350281,300.803875207901"></polygon><polygon fill="rgb(0,0,0)" stroke="rgb(0,0,0)" points="340.99546337127686,297.17793211340904 339.04063510894775,299.5643746852875 341.7702798843384,272.9930730462074"></polygon><polygon fill="rgb(0,0,0)" stroke="rgb(0,0,0)" points="387.0417619943619,273.8737254291773 390.6470904350281,300.803875207901 386.63353139162064,298.2550529539585"></polygon><polygon fill="rgb(0,0,0)" stroke="rgb(0,0,0)" points="341.7702798843384,272.9930730462074 341.5797414779663,279.21927689015865 340.99546337127686,297.17793211340904"></polygon><polygon fill="rgb(0,0,0)" stroke="rgb(0,0,0)" points="341.7702798843384,272.9930730462074 347.544153213501,269.0932326614857 345.25657081604004,275.1450546979904"></polygon><polygon fill="rgb(0,0,0)" stroke="rgb(0,0,0)" points="345.25657081604004,275.1450546979904 341.5797414779663,279.21927689015865 341.7702798843384,272.9930730462074"></polygon><polygon fill="rgb(0,0,0)" stroke="rgb(0,0,0)" points="345.25657081604004,275.1450546979904 347.544153213501,269.0932326614857 381.1654175519943,269.7241518050432"></polygon><polygon fill="rgb(0,0,0)" stroke="rgb(0,0,0)" points="386.63353139162064,298.2550529539585 340.99546337127686,297.17793211340904 341.5797414779663,279.21927689015865"></polygon><polygon fill="rgb(0,0,0)" stroke="rgb(0,0,0)" points="381.1654175519943,269.7241518050432 379.46078181266785,275.82262974977493 345.25657081604004,275.1450546979904"></polygon><polygon fill="rgb(0,0,0)" stroke="rgb(0,0,0)" points="379.46078181266785,275.82262974977493 381.1654175519943,269.7241518050432 387.0417619943619,273.8737254291773"></polygon><polygon fill="rgb(0,0,0)" stroke="rgb(0,0,0)" points="386.63353139162064,298.2550529539585 383.2130982577801,280.0736136287451 387.0417619943619,273.8737254291773"></polygon><polygon fill="rgb(0,0,0)" stroke="rgb(0,0,0)" points="387.0417619943619,273.8737254291773 383.2130982577801,280.0736136287451 379.46078181266785,275.82262974977493"></polygon><polygon fill="rgb(0,0,0)" stroke="rgb(0,0,0)" points="341.5797414779663,279.21927689015865 383.2130982577801,280.0736136287451 386.63353139162064,298.2550529539585"></polygon><polygon fill="rgb(0,0,0)" stroke="rgb(0,0,0)" points="341.5797414779663,279.21927689015865 345.25657081604004,275.1450546979904 379.46078181266785,275.82262974977493"></polygon><polygon fill="rgb(0,0,0)" stroke="rgb(0,0,0)" points="379.46078181266785,275.82262974977493 383.2130982577801,280.0736136287451 341.5797414779663,279.21927689015865"></polygon></svg>